<?xml version="1.0" encoding="utf-8"?>
<!-- Generator: Adobe Illustrator 25.2.3, SVG Export Plug-In . SVG Version: 6.00 Build 0)  -->
<svg version="1.1" id="Ebene_1" xmlns="http://www.w3.org/2000/svg" xmlns:xlink="http://www.w3.org/1999/xlink" x="0px" y="0px"
	 viewBox="0 0 120 120" style="enable-background:new 0 0 120 120;" xml:space="preserve">
<style type="text/css">
	.st0{fill:#FFFFFF;}
</style>
<path class="st0" d="M59.7,77.1h-0.4l18.8-16.4C77,70.1,69.1,77.1,59.7,77.1z M111.1,57c-1.3-1.6-2.6-3.3-3.9-4.8
	c-2.8-3.2-5.8-6.3-9-9.1l-5.5,4.8c2.5,2.2,5,4.6,7.3,7c0.9,0.9,1.7,1.9,2.5,2.8c0.8,0.8,0.8,1.1,0,1.9c-4.7,5.6-10.1,10.7-16.1,15
	c-3.9,2.8-8.2,5.2-12.7,7c-5.3,2.2-11.1,3.2-16.8,2.8c-1.7-0.1-3.5-0.4-5.1-0.8l-6.3,5.6c1.7,0.6,3.5,1.1,5.2,1.5
	c2.4,0.5,4.7,0.7,7.1,1h1.7c5.1,0,10.1-0.9,14.9-2.6c3.5-1.3,6.9-2.8,10.1-4.7c5.1-2.9,9.8-6.4,14.1-10.3c4.4-4,8.5-8.4,12.1-13.1
	C111.7,60,111.9,58.3,111.1,57z M100.2,22.1c-2.1-2.4-5.6-2.6-8-0.6l-11,9.6c-3.3-1.7-6.8-3-10.4-4c-3.3-0.9-6.8-1.4-10.2-1.5
	c-6.3-0.1-12.6,1.2-18.5,3.7c-2.8,1.2-5.5,2.6-8.1,4.2c-5.5,3.3-10.5,7.2-15.1,11.6c-3.6,3.4-7,7.1-10.1,11c-1.3,1.4-1.3,3.6,0,5
	c2.3,2.9,5,5.9,7.6,8.7c3.1,3.3,6.5,6.3,10.1,9l-11.2,9.8c-1.2,1.1-2,2.6-2,4.3c0,3.1,2.5,5.7,5.7,5.7c1.4,0,2.7-0.5,3.7-1.4
	l76.9-67.1C102,28,102.3,24.4,100.2,22.1z M21.2,64.4c-1.5-1.6-3-3.2-4.4-4.7c-0.5-0.6-0.8-1,0-1.8c4-4.7,8.5-9.1,13.3-12.9
	c3.3-2.7,6.8-5,10.5-7.1c2.6-1.3,5.3-2.3,8-3.3c3.7-1.4,7.6-2,11.5-1.8c3.4-0.1,6.7,0.4,9.9,1.4c1.8,0.6,3.6,1.3,5.4,2.1l-7.1,6.2
	c-2.6-1.4-5.5-2.1-8.5-2.2c-10.2,0-18.4,8.2-18.5,18.4c0,2.2,0.4,4.3,1.1,6.3l-10.3,9C28.2,71.1,24.5,67.9,21.2,64.4z"/>
</svg>
